<?xml version="1.0" encoding="utf-8"?>
<!-- Generator: Adobe Illustrator 24.2.3, SVG Export Plug-In . SVG Version: 6.00 Build 0)  -->
<svg version="1.1" id="圖層_1" focusable="false" xmlns="http://www.w3.org/2000/svg" xmlns:xlink="http://www.w3.org/1999/xlink"
	 x="0px" y="0px" viewBox="0 0 640 512" style="enable-background:new 0 0 640 512;" xml:space="preserve">
<style type="text/css">
	.st0{fill:#6DA77F;}
</style>
<path class="st0" d="M196,163h31v-124h-31c-34.3,0-62,27.8-62,62S161.7,163,196,163z M9.9,411c0,34.3,27.7,62,62,62h31V349h-31
	C37.7,349,9.9,376.7,9.9,411z M337,287c-33.8,0-73.8,12.7-101.5,31c-24,15.9-43.1,31-101.5,31v124l55.7,15.5
	c25.4,7.1,51.4,12.7,77.8,14.5c31.7,2.2,63.6,0.7,94.6-6c106-22.8,143.9-73.3,143.9-117.1C506.1,318,424.5,287,337,287L337,287z
	 M486.1,14.9c-31-6.7-62.9-8.2-94.6-6c-26.5,1.8-52.4,7.6-77.8,14.5L258,38.9v124c58.3,0,77.4,15.1,101.5,31
	c27.7,18.3,67.6,31,101.5,31c87.6,0,169.1-31,169.1-93C630.1,88.2,592.2,37.7,486.1,14.9L486.1,14.9z"/>
</svg>
